# xmcd
#
# Track frame offsets:
#	150
#	63092
#	85650
#	128282
#
# Disc length: 2460
#
# Revision: 1
# Processed by: cddbd v1.5.1PL0 Copyright (c) Steve Scherf et al.
# Submitted via: Audion 3.0.2 (http://www.panic.com/audion/)
# Normalized: r0:TRMNUM
#
DISCID=20099a04
DTITLE=Franck (césar) - Quatuor à cordes en ré
DYEAR=1900
DGENRE=
TTITLE0=Poco lento - Allegro
TTITLE1=Scherzo - Vivace
TTITLE2=Larghetto
TTITLE3=Finale Allegro molto
EXTD=
EXTT0=
EXTT1=
EXTT2=
EXTT3=
PLAYORDER=
